<?xml version="1.0" encoding="UTF-8" standalone="no"?>
<!-- Created with Inkscape (http://www.inkscape.org/) -->

<svg
   width="1122.5197"
   height="793.70081"
   viewBox="0 0 296.99998 210"
   version="1.1"
   id="svg1"
   xml:space="preserve"
   sodipodi:docname="logo.svg"
   inkscape:version="1.4 (86a8ad7, 2024-10-11)"
   xmlns:inkscape="http://www.inkscape.org/namespaces/inkscape"
   xmlns:sodipodi="http://sodipodi.sourceforge.net/DTD/sodipodi-0.dtd"
   xmlns="http://www.w3.org/2000/svg"
   xmlns:svg="http://www.w3.org/2000/svg"><sodipodi:namedview
     id="namedview1"
     pagecolor="#ffffff"
     bordercolor="#000000"
     borderopacity="0.25"
     inkscape:showpageshadow="false"
     inkscape:pageopacity="0.0"
     inkscape:pagecheckerboard="0"
     inkscape:deskcolor="#d1d1d1"
     inkscape:document-units="px"
     showborder="false"
     borderlayer="false"
     inkscape:antialias-rendering="false"
     showguides="true"
     inkscape:zoom="0.87"
     inkscape:cx="615.51724"
     inkscape:cy="494.25287"
     inkscape:window-width="1920"
     inkscape:window-height="991"
     inkscape:window-x="-9"
     inkscape:window-y="-9"
     inkscape:window-maximized="1"
     inkscape:current-layer="layer1" /><defs
     id="defs1"><rect
       x="589.65517"
       y="322.98851"
       width="422.98851"
       height="111.49425"
       id="rect13" /><rect
       x="598.85057"
       y="319.54023"
       width="286.2069"
       height="131.03448"
       id="rect12" /></defs><g
     inkscape:label="Layer 1"
     inkscape:groupmode="layer"
     id="layer1"><path
       id="path1"
       style="fill:#808080;fill-opacity:1;stroke:none;stroke-width:1.57259;stroke-linecap:round;stroke-linejoin:bevel"
       d="m 61.787957,59.176807 -45.059263,25.822712 -0.166398,51.933271 44.892865,26.11106 45.058749,-25.82219 0.001,-0.35915 -38.311871,0.0465 c -0.8641,-1.61476 -11.316815,-21.96573 6.769608,-30.3041 l 2.71198,3.01067 1.84227,-5.67511 c -0.01,-0.003 -0.01852,-0.002 -0.02842,-0.005 0.0312,-0.0662 0.05938,-0.11839 0.09198,-0.1912 l 1.80558,-5.5609 -11.755876,2.50217 2.720764,3.02049 c -0.31478,0.21633 -5.457147,2.31623 -7.886857,5.51905 -2.49456,3.28827 2.551269,0.0617 -5.758821,-12.403384 l 2.979146,-1.523938 -10.090857,-6.529833 -0.609265,12.003915 3.693832,-1.889804 c 0.21622,0.282006 5.880119,7.757744 4.759399,15.826944 -1.14236,8.22501 -2.17041,6.28282 -2.17041,6.28282 0,0 -0.685501,-0.11435 -5.369181,-1.48518 l -4.929932,-1.69964 2.104264,-3.09335 -12.018387,0.13384 6.125207,10.34149 2.518709,-4.47724 -0.196887,0.39429 c 0,0 11.891257,1.38133 16.354557,15.81143 l -44.813284,0.0543 44.73887,-77.707917 44.724922,77.247997 0.16433,-51.224263 z" /><path
       style="fill:#333333;fill-opacity:1;stroke:none;stroke-width:2.565;stroke-linecap:round;stroke-linejoin:bevel"
       d="m 25.154049,129.31044 c 0,0 -4.658157,101.92048 0,0 z"
       id="path7" /><path
       style="fill:#333333;fill-opacity:1;stroke:none;stroke-width:2.565;stroke-linecap:round;stroke-linejoin:bevel"
       d="M 30.18486,131.54636 36.333625,95.95804"
       id="path8" /><path
       id="path12"
       style="fill:#759fcb;fill-opacity:1;stroke:none;stroke-width:1.57259;stroke-linecap:round;stroke-linejoin:bevel"
       d="m 58.138554,57.656036 -45.059116,25.822656 -0.166651,51.933628 44.892777,26.11097 45.058806,-25.82233 0.001,-0.35897 -38.311666,0.0466 c -0.8641,-1.61476 -11.3171,-21.96612 6.769328,-30.3045 l 2.712355,3.01081 1.84203,-5.67501 c -0.01,-0.003 -0.0183,-0.002 -0.0282,-0.005 0.0312,-0.0662 0.0593,-0.11792 0.0919,-0.19073 l 1.80529,-5.560944 -11.755863,2.501982 2.7209,3.020312 c -0.31478,0.21633 -5.45705,2.31663 -7.88676,5.51945 -2.49456,3.28827 2.55112,0.0616 -5.75897,-12.403465 l 2.97913,-1.524254 -10.09094,-6.529485 -0.60926,12.003935 3.69389,-1.889872 c 0.21622,0.282006 5.88041,7.757571 4.75969,15.826781 -1.14236,8.22501 -2.17058,6.28267 -2.17058,6.28267 0,0 -0.68559,-0.11413 -5.36927,-1.48496 l -4.92983,-1.69978 2.10437,-3.09318 -12.018512,0.13402 6.125212,10.34122 2.51877,-4.47707 -0.19706,0.39413 c 0,0 11.89162,1.38114 16.35492,15.81124 l -44.813575,0.0545 44.738805,-77.70781 44.724866,77.24778 0.16443,-51.223939 z" /><text
       xml:space="preserve"
       transform="scale(0.26458333)"
       id="text12"
       style="fill:#9e3737;text-orientation:auto;stroke-width:9.69448819;stroke-linecap:round;stroke-linejoin:bevel;stroke:none;text-align:start;writing-mode:lr-tb;direction:ltr;fill-opacity:1;white-space:pre;shape-inside:url(#rect12)" /><text
       xml:space="preserve"
       transform="scale(0.26458333)"
       id="text13"
       style="text-align:start;writing-mode:lr-tb;direction:ltr;white-space:pre;shape-inside:url(#rect13);fill:#9e3737;fill-opacity:1;stroke:none;stroke-width:9.69449;stroke-linecap:round;stroke-linejoin:bevel;-inkscape-font-specification:'Arial Rounded MT Bold, ';font-family:'Arial Rounded MT Bold';font-weight:normal;font-style:normal;font-stretch:normal;font-variant:normal" /><text
       xml:space="preserve"
       style="font-style:normal;font-variant:normal;font-weight:normal;font-stretch:normal;font-size:17.1107px;line-height:0;font-family:'Times New Roman';-inkscape-font-specification:'Times New Roman, ';text-align:center;letter-spacing:0px;writing-mode:lr-tb;direction:ltr;text-anchor:middle;fill:#769fcb;fill-opacity:1;stroke:none;stroke-width:3.11024;stroke-linecap:round;stroke-linejoin:bevel"
       x="195.4586"
       y="118.51775"
       id="text14"><tspan
         sodipodi:role="line"
         id="tspan14"
         style="font-style:normal;font-variant:normal;font-weight:normal;font-stretch:normal;font-size:17.1107px;line-height:0;font-family:'Times New Roman';-inkscape-font-specification:'Times New Roman, ';text-align:center;letter-spacing:0px;text-anchor:middle;fill:#769fcb;fill-opacity:1;stroke-width:3.11024"
         x="195.4586"
         y="118.51775">AppKnewTechnologies</tspan><tspan
         sodipodi:role="line"
         style="font-style:normal;font-variant:normal;font-weight:normal;font-stretch:normal;font-size:17.1107px;line-height:0;font-family:'Times New Roman';-inkscape-font-specification:'Times New Roman, ';text-align:center;letter-spacing:0px;text-anchor:middle;fill:#769fcb;fill-opacity:1;stroke-width:3.11024"
         x="195.4586"
         y="118.51775"
         id="tspan15" /></text></g></svg>
